<?xml version="1.0" encoding="UTF-8" standalone="no"?>
<svg viewBox="0 0 50 50"
 xmlns="http://www.w3.org/2000/svg" xmlns:xlink="http://www.w3.org/1999/xlink"  version="1.2" baseProfile="tiny">
<title>Qt SVG Document</title>
<desc>Generated with Qt</desc>
<defs>
</defs>
<g fill="none" stroke="black" stroke-width="1" fill-rule="evenodd" stroke-linecap="square" stroke-linejoin="bevel" >

<g fill="#000000" fill-opacity="1" stroke="none" transform="matrix(2.27273,0,0,2.27273,-150,0)"
font-family="Roboto" font-size="10.5" font-weight="400" font-style="normal" 
opacity="0.001" >
<rect x="66" y="0" width="22" height="22"/>
</g>

<g fill="#ffffff" fill-opacity="1" stroke="none" transform="matrix(2.27273,0,0,2.27273,-150,0)"
font-family="Roboto" font-size="10.5" font-weight="400" font-style="normal" 
opacity="0.2" >
<path vector-effect="none" fill-rule="nonzero" d="M73,8 L73,9 L73,10 L74,10 L74,11 L75,11 L75,12 L76,12 L76,13 L74,13 L74,14 L73,14 L73,16 L75,16 L75,15 L76,15 L76,14 L77,14 L78,14 L78,15 L79,15 L79,16 L81,16 L81,14 L80,14 L80,13 L78,13 L78,12 L79,12 L79,11 L80,11 L80,10 L81,10 L81,9 L81,8 L79,8 L79,9 L78,9 L78,10 L77,10 L76,10 L76,9 L75,9 L75,8 L73,8"/>
</g>

<g fill="#aaaaaa" fill-opacity="1" stroke="none" transform="matrix(2.27273,0,0,2.27273,-150,0)"
font-family="Roboto" font-size="10.5" font-weight="400" font-style="normal" 
>
<path vector-effect="none" fill-rule="nonzero" d="M73,7 L73,8 L73,9 L74,9 L74,10 L75,10 L75,11 L76,11 L76,12 L74,12 L74,13 L73,13 L73,15 L75,15 L75,14 L76,14 L76,13 L77,13 L78,13 L78,14 L79,14 L79,15 L81,15 L81,13 L80,13 L80,12 L78,12 L78,11 L79,11 L79,10 L80,10 L80,9 L81,9 L81,8 L81,7 L79,7 L79,8 L78,8 L78,9 L77,9 L76,9 L76,8 L75,8 L75,7 L73,7"/>
</g>

<g fill="#bfbfbf" fill-opacity="1" stroke="none" transform="matrix(2.27273,0,0,2.27273,-150,0)"
font-family="Roboto" font-size="10.5" font-weight="400" font-style="normal" 
>
<path vector-effect="none" fill-rule="nonzero" d="M75,11 L75,12 L76,12 L76,11 L75,11 M78,11 L78,12 L79,12 L79,11 L78,11"/>
</g>

<g fill="#000000" fill-opacity="1" stroke="none" transform="matrix(2.27273,0,0,2.27273,-150,0)"
font-family="Roboto" font-size="10.5" font-weight="400" font-style="normal" 
opacity="0.21" >
<path vector-effect="none" fill-rule="nonzero" d="M73,7 L73,8 L75,8 L75,7 L73,7 M75,8 L75,9 L76,9 L76,8 L75,8 M76,9 L76,10 L77,10 L78,10 L78,9 L77,9 L76,9 M78,9 L79,9 L79,8 L78,8 L78,9 M79,8 L81,8 L81,7 L79,7 L79,8 M74,12 L74,13 L75,13 L75,12 L74,12 M74,13 L73,13 L73,14 L74,14 L74,13 M79,12 L79,13 L80,13 L80,12 L79,12 M80,13 L80,14 L81,14 L81,13 L80,13"/>
</g>

<g fill="none" stroke="#000000" stroke-opacity="1" stroke-width="1" stroke-linecap="square" stroke-linejoin="bevel" transform="matrix(1,0,0,1,0,0)"
font-family="Roboto" font-size="10.5" font-weight="400" font-style="normal" 
>
</g>
</g>
</svg>
