<?xml version="1.0" encoding="UTF-8" standalone="no"?>
<svg viewBox="0 0 50 50"
 xmlns="http://www.w3.org/2000/svg" xmlns:xlink="http://www.w3.org/1999/xlink"  version="1.2" baseProfile="tiny">
<title>Qt SVG Document</title>
<desc>Generated with Qt</desc>
<defs>
</defs>
<g fill="none" stroke="black" stroke-width="1" fill-rule="evenodd" stroke-linecap="square" stroke-linejoin="bevel" >

<g fill="#000000" fill-opacity="1" stroke="none" transform="matrix(2.27273,0,0,2.27273,0,0)"
font-family="Roboto" font-size="10.5" font-weight="400" font-style="normal" 
opacity="0.001" >
<rect x="0" y="0" width="22" height="22"/>
</g>

<g fill="#ffffff" fill-opacity="1" stroke="none" transform="matrix(2.27273,0,0,2.27273,0,0)"
font-family="Roboto" font-size="10.5" font-weight="400" font-style="normal" 
opacity="0.5" >
<path vector-effect="none" fill-rule="nonzero" d="M7,8 L7,9 L7,10 L8,10 L8,11 L9,11 L9,12 L10,12 L10,13 L8,13 L8,14 L7,14 L7,16 L9,16 L9,15 L10,15 L10,14 L11,14 L12,14 L12,15 L13,15 L13,16 L15,16 L15,14 L14,14 L14,13 L12,13 L12,12 L13,12 L13,11 L14,11 L14,10 L15,10 L15,9 L15,8 L13,8 L13,9 L12,9 L12,10 L11,10 L10,10 L10,9 L9,9 L9,8 L7,8"/>
</g>

<g fill="#878787" fill-opacity="1" stroke="none" transform="matrix(2.27273,0,0,2.27273,0,0)"
font-family="Roboto" font-size="10.5" font-weight="400" font-style="normal" 
>
<path vector-effect="none" fill-rule="nonzero" d="M7,7 L7,8 L7,9 L8,9 L8,10 L9,10 L9,11 L10,11 L10,12 L8,12 L8,13 L7,13 L7,15 L9,15 L9,14 L10,14 L10,13 L11,13 L12,13 L12,14 L13,14 L13,15 L15,15 L15,13 L14,13 L14,12 L12,12 L12,11 L13,11 L13,10 L14,10 L14,9 L15,9 L15,8 L15,7 L13,7 L13,8 L12,8 L12,9 L11,9 L10,9 L10,8 L9,8 L9,7 L7,7"/>
</g>

<g fill="#b0b0b0" fill-opacity="1" stroke="none" transform="matrix(2.27273,0,0,2.27273,0,0)"
font-family="Roboto" font-size="10.5" font-weight="400" font-style="normal" 
>
<path vector-effect="none" fill-rule="nonzero" d="M9,11 L9,12 L10,12 L10,11 L9,11 M12,11 L12,12 L13,12 L13,11 L12,11"/>
</g>

<g fill="#000000" fill-opacity="1" stroke="none" transform="matrix(2.27273,0,0,2.27273,0,0)"
font-family="Roboto" font-size="10.5" font-weight="400" font-style="normal" 
opacity="0.21" >
<path vector-effect="none" fill-rule="nonzero" d="M7,7 L7,8 L9,8 L9,7 L7,7 M9,8 L9,9 L10,9 L10,8 L9,8 M10,9 L10,10 L11,10 L12,10 L12,9 L11,9 L10,9 M12,9 L13,9 L13,8 L12,8 L12,9 M13,8 L15,8 L15,7 L13,7 L13,8 M8,12 L8,13 L9,13 L9,12 L8,12 M8,13 L7,13 L7,14 L8,14 L8,13 M13,12 L13,13 L14,13 L14,12 L13,12 M14,13 L14,14 L15,14 L15,13 L14,13"/>
</g>

<g fill="none" stroke="#000000" stroke-opacity="1" stroke-width="1" stroke-linecap="square" stroke-linejoin="bevel" transform="matrix(1,0,0,1,0,0)"
font-family="Roboto" font-size="10.5" font-weight="400" font-style="normal" 
>
</g>
</g>
</svg>
