<?xml version="1.0" encoding="UTF-8" standalone="no"?>
<svg viewBox="0 0 50 50"
 xmlns="http://www.w3.org/2000/svg" xmlns:xlink="http://www.w3.org/1999/xlink"  version="1.2" baseProfile="tiny">
<title>Qt SVG Document</title>
<desc>Generated with Qt</desc>
<defs>
<linearGradient gradientUnits="userSpaceOnUse" x1="55" y1="7" x2="55" y2="16" id="gradient1">
    <stop offset="0" stop-color="#4381c1" stop-opacity="1" />
    <stop offset="1" stop-color="#5fa0e4" stop-opacity="1" />
</linearGradient>
</defs>
<g fill="none" stroke="black" stroke-width="1" fill-rule="evenodd" stroke-linecap="square" stroke-linejoin="bevel" >

<g fill="#ffffff" fill-opacity="1" stroke="none" transform="matrix(2.27273,0,0,2.27273,-100,0)"
font-family="Roboto" font-size="10.5" font-weight="400" font-style="normal" 
opacity="0.5" >
<path vector-effect="none" fill-rule="nonzero" d="M51,8 L51,9 L51,10 L52,10 L52,11 L53,11 L53,12 L54,12 L54,13 L52,13 L52,14 L51,14 L51,16 L53,16 L53,15 L54,15 L54,14 L55,14 L56,14 L56,15 L57,15 L57,16 L59,16 L59,14 L58,14 L58,13 L56,13 L56,12 L57,12 L57,11 L58,11 L58,10 L59,10 L59,9 L59,8 L57,8 L57,9 L56,9 L56,10 L55,10 L54,10 L54,9 L53,9 L53,8 L51,8"/>
</g>

<g fill="url(#gradient1)" stroke="none" transform="matrix(2.27273,0,0,2.27273,-100,0)"
font-family="Roboto" font-size="10.5" font-weight="400" font-style="normal" 
>
<path vector-effect="none" fill-rule="nonzero" d="M51,7 L51,8 L51,9 L52,9 L52,10 L53,10 L53,11 L53,12 L52,12 L52,13 L51,13 L51,15 L53,15 L53,14 L54,14 L54,13 L55,13 L56,13 L56,14 L57,14 L57,15 L59,15 L59,13 L58,13 L58,12 L57,12 L57,11 L57,10 L58,10 L58,9 L59,9 L59,8 L59,7 L57,7 L57,8 L56,8 L56,9 L55,9 L54,9 L54,8 L53,8 L53,7 L51,7"/>
</g>

<g fill="#1f61a9" fill-opacity="1" stroke="none" transform="matrix(2.27273,0,0,2.27273,-100,0)"
font-family="Roboto" font-size="10.5" font-weight="400" font-style="normal" 
>
<path vector-effect="none" fill-rule="nonzero" d="M51,7 L51,8 L53,8 L53,7 L51,7 M53,8 L53,9 L54,9 L54,8 L53,8 M54,9 L54,10 L55,10 L56,10 L56,9 L55,9 L54,9 M56,9 L57,9 L57,8 L56,8 L56,9 M57,8 L59,8 L59,7 L57,7 L57,8 M52,12 L52,13 L53,13 L53,12 L52,12 M52,13 L51,13 L51,14 L52,14 L52,13 M57,12 L57,13 L58,13 L58,12 L57,12 M58,13 L58,14 L59,14 L59,13 L58,13"/>
</g>

<g fill="#000000" fill-opacity="1" stroke="none" transform="matrix(2.27273,0,0,2.27273,-100,0)"
font-family="Roboto" font-size="10.5" font-weight="400" font-style="normal" 
opacity="0.37" >
<path vector-effect="none" fill-rule="nonzero" d="M47.3008,0 C45.4916,0 44,1.49161 44,3.30078 L44,18.6992 C44,20.5084 45.4916,22 47.3008,22 L62.6992,22 C64.5084,22 66,20.5084 66,18.6992 L66,3.30078 C66,1.49161 64.5084,0 62.6992,0 L47.3008,0 M47.2227,1 L62.7773,1 C64.0085,1 65,1.99155 65,3.22266 L65,18.7773 C65,20.0085 64.0085,21 62.7773,21 L47.2227,21 C45.9915,21 45,20.0085 45,18.7773 L45,3.22266 C45,1.99155 45.9915,1 47.2227,1 L47.2227,1"/>
</g>

<g fill="none" stroke="#000000" stroke-opacity="1" stroke-width="1" stroke-linecap="square" stroke-linejoin="bevel" transform="matrix(1,0,0,1,0,0)"
font-family="Roboto" font-size="10.5" font-weight="400" font-style="normal" 
>
</g>
</g>
</svg>
