<?xml version="1.0" encoding="UTF-8" standalone="no"?>
<svg viewBox="0 0 50 50"
 xmlns="http://www.w3.org/2000/svg" xmlns:xlink="http://www.w3.org/1999/xlink"  version="1.2" baseProfile="tiny">
<title>Qt SVG Document</title>
<desc>Generated with Qt</desc>
<defs>
</defs>
<g fill="none" stroke="black" stroke-width="1" fill-rule="evenodd" stroke-linecap="square" stroke-linejoin="bevel" >

<g fill="#ffffff" fill-opacity="1" stroke="none" transform="matrix(2.27273,0,0,2.27273,-50,0)"
font-family="Roboto" font-size="10.5" font-weight="400" font-style="normal" 
opacity="0.5" >
<path vector-effect="none" fill-rule="nonzero" d="M29,8 L29,9 L29,10 L30,10 L30,11 L31,11 L31,12 L32,12 L32,13 L30,13 L30,14 L29,14 L29,16 L31,16 L31,15 L32,15 L32,14 L33,14 L34,14 L34,15 L35,15 L35,16 L37,16 L37,14 L36,14 L36,13 L34,13 L34,12 L35,12 L35,11 L36,11 L36,10 L37,10 L37,9 L37,8 L35,8 L35,9 L34,9 L34,10 L33,10 L32,10 L32,9 L31,9 L31,8 L29,8"/>
</g>

<g fill="#595959" fill-opacity="1" stroke="none" transform="matrix(2.27273,0,0,2.27273,-50,0)"
font-family="Roboto" font-size="10.5" font-weight="400" font-style="normal" 
>
<path vector-effect="none" fill-rule="nonzero" d="M29,7 L29,8 L29,9 L30,9 L30,10 L31,10 L31,11 L32,11 L32,12 L30,12 L30,13 L29,13 L29,15 L31,15 L31,14 L32,14 L32,13 L33,13 L34,13 L34,14 L35,14 L35,15 L37,15 L37,13 L36,13 L36,12 L34,12 L34,11 L35,11 L35,10 L36,10 L36,9 L37,9 L37,8 L37,7 L35,7 L35,8 L34,8 L34,9 L33,9 L32,9 L32,8 L31,8 L31,7 L29,7"/>
</g>

<g fill="#8b8b8b" fill-opacity="1" stroke="none" transform="matrix(2.27273,0,0,2.27273,-50,0)"
font-family="Roboto" font-size="10.5" font-weight="400" font-style="normal" 
>
<path vector-effect="none" fill-rule="nonzero" d="M31,11 L31,12 L32,12 L32,11 L31,11 M34,11 L34,12 L35,12 L35,11 L34,11"/>
</g>

<g fill="#000000" fill-opacity="1" stroke="none" transform="matrix(2.27273,0,0,2.27273,-50,0)"
font-family="Roboto" font-size="10.5" font-weight="400" font-style="normal" 
opacity="0.25" >
<path vector-effect="none" fill-rule="nonzero" d="M29,7 L29,8 L31,8 L31,7 L29,7 M31,8 L31,9 L32,9 L32,8 L31,8 M32,9 L32,10 L33,10 L34,10 L34,9 L33,9 L32,9 M34,9 L35,9 L35,8 L34,8 L34,9 M35,8 L37,8 L37,7 L35,7 L35,8 M30,12 L30,13 L31,13 L31,12 L30,12 M30,13 L29,13 L29,14 L30,14 L30,13 M35,12 L35,13 L36,13 L36,12 L35,12 M36,13 L36,14 L37,14 L37,13 L36,13"/>
</g>

<g fill="#000000" fill-opacity="1" stroke="none" transform="matrix(2.27273,0,0,2.27273,-50,0)"
font-family="Roboto" font-size="10.5" font-weight="400" font-style="normal" 
opacity="0.37" >
<path vector-effect="none" fill-rule="nonzero" d="M25.3008,0 C23.4916,0 22,1.49161 22,3.30078 L22,18.6992 C22,20.5084 23.4916,22 25.3008,22 L40.6992,22 C42.5084,22 44,20.5084 44,18.6992 L44,3.30078 C44,1.49161 42.5084,0 40.6992,0 L25.3008,0 M25.2227,1 L40.7773,1 C42.0085,1 43,1.99155 43,3.22266 L43,18.7773 C43,20.0085 42.0085,21 40.7773,21 L25.2227,21 C23.9915,21 23,20.0085 23,18.7773 L23,3.22266 C23,1.99155 23.9915,1 25.2227,1 L25.2227,1"/>
</g>

<g fill="#ffffff" fill-opacity="1" stroke="none" transform="matrix(2.27273,0,0,2.27273,-50,0)"
font-family="Roboto" font-size="10.5" font-weight="400" font-style="normal" 
opacity="0.6" >
<path vector-effect="none" fill-rule="nonzero" d="M25.2227,1 C23.9915,1 23,1.99155 23,3.22266 L23,4.22266 C23,2.99155 23.9915,2 25.2227,2 L40.7773,2 C42.0085,2 43,2.99155 43,4.22266 L43,3.22266 C43,1.99155 42.0085,1 40.7773,1 L25.2227,1"/>
</g>

<g fill="none" stroke="#000000" stroke-opacity="1" stroke-width="1" stroke-linecap="square" stroke-linejoin="bevel" transform="matrix(1,0,0,1,0,0)"
font-family="Roboto" font-size="10.5" font-weight="400" font-style="normal" 
>
</g>
</g>
</svg>
