<?xml version="1.0" encoding="UTF-8" standalone="no"?>
<svg viewBox="0 0 50 50"
 xmlns="http://www.w3.org/2000/svg" xmlns:xlink="http://www.w3.org/1999/xlink"  version="1.2" baseProfile="tiny">
<title>Qt SVG Document</title>
<desc>Generated with Qt</desc>
<defs>
</defs>
<g fill="none" stroke="black" stroke-width="1" fill-rule="evenodd" stroke-linecap="square" stroke-linejoin="bevel" >

<g fill="#000000" fill-opacity="1" stroke="none" transform="matrix(2.27273,0,0,2.27273,0,0)"
font-family="Roboto" font-size="10.5" font-weight="400" font-style="normal" 
opacity="0.001" >
<rect x="0" y="0" width="22" height="22"/>
</g>

<g fill="#ffffff" fill-opacity="1" stroke="none" transform="matrix(2.27273,0,0,2.27273,0,0)"
font-family="Roboto" font-size="10.5" font-weight="400" font-style="normal" 
opacity="0.5" >
<path vector-effect="none" fill-rule="nonzero" d="M10,8 L10,11 L7,11 L7,13 L10,13 L10,16 L12,16 L12,13 L15,13 L15,11 L12,11 L12,8 L10,8"/>
</g>

<g fill="#878787" fill-opacity="1" stroke="none" transform="matrix(2.27273,0,0,2.27273,0,0)"
font-family="Roboto" font-size="10.5" font-weight="400" font-style="normal" 
>
<path vector-effect="none" fill-rule="nonzero" d="M10,7 L10,10 L7,10 L7,12 L10,12 L10,15 L12,15 L12,12 L15,12 L15,10 L12,10 L12,7 L10,7"/>
</g>

<g fill="#000000" fill-opacity="1" stroke="none" transform="matrix(2.27273,0,0,2.27273,0,0)"
font-family="Roboto" font-size="10.5" font-weight="400" font-style="normal" 
opacity="0.21" >
<path vector-effect="none" fill-rule="nonzero" d="M10,7 L10,8 L12,8 L12,7 L10,7 M7,10 L7,11 L10,11 L10,10 L7,10 M12,10 L12,11 L15,11 L15,10 L12,10"/>
</g>

<g fill="none" stroke="#000000" stroke-opacity="1" stroke-width="1" stroke-linecap="square" stroke-linejoin="bevel" transform="matrix(1,0,0,1,0,0)"
font-family="Roboto" font-size="10.5" font-weight="400" font-style="normal" 
>
</g>
</g>
</svg>
