<?xml version="1.0" encoding="UTF-8" standalone="no"?>
<svg viewBox="0 0 50 50"
 xmlns="http://www.w3.org/2000/svg" xmlns:xlink="http://www.w3.org/1999/xlink"  version="1.2" baseProfile="tiny">
<title>Qt SVG Document</title>
<desc>Generated with Qt</desc>
<defs>
<linearGradient gradientUnits="userSpaceOnUse" x1="12" y1="7" x2="12" y2="15" id="gradient1">
    <stop offset="0" stop-color="#4381c1" stop-opacity="1" />
    <stop offset="1" stop-color="#5fa0e4" stop-opacity="1" />
</linearGradient>
</defs>
<g fill="none" stroke="black" stroke-width="1" fill-rule="evenodd" stroke-linecap="square" stroke-linejoin="bevel" >

<g fill="#000000" fill-opacity="1" stroke="none" transform="matrix(2.27273,0,0,2.27273,-100,0)"
font-family="Roboto" font-size="10.5" font-weight="400" font-style="normal" 
opacity="0.37" >
<path vector-effect="none" fill-rule="nonzero" d="M47.3008,0 C45.4916,0 44,1.49161 44,3.30078 L44,18.6992 C44,20.5084 45.4916,22 47.3008,22 L62.6992,22 C64.5084,22 66,20.5084 66,18.6992 L66,3.30078 C66,1.49161 64.5084,0 62.6992,0 L47.3008,0 M47.2227,1 L62.7773,1 C64.0085,1 65,1.99155 65,3.22266 L65,18.7773 C65,20.0085 64.0085,21 62.7773,21 L47.2227,21 C45.9915,21 45,20.0085 45,18.7773 L45,3.22266 C45,1.99155 45.9915,1 47.2227,1 L47.2227,1"/>
</g>

<g fill="#ffffff" fill-opacity="1" stroke="none" transform="matrix(2.27273,0,0,2.27273,-100,0)"
font-family="Roboto" font-size="10.5" font-weight="400" font-style="normal" 
opacity="0.5" >
<path vector-effect="none" fill-rule="nonzero" d="M54,8 L54,11 L51,11 L51,13 L54,13 L54,16 L56,16 L56,13 L59,13 L59,11 L56,11 L56,8 L54,8"/>
</g>

<g fill="url(#gradient1)" stroke="none" transform="matrix(2.27273,0,0,2.27273,-100,0)"
font-family="Roboto" font-size="10.5" font-weight="400" font-style="normal" 
>
<path vector-effect="none" fill-rule="nonzero" d="M54,7 L54,10 L51,10 L51,12 L54,12 L54,15 L56,15 L56,12 L59,12 L59,10 L56,10 L56,7 L54,7"/>
</g>

<g fill="#1f61a9" fill-opacity="1" stroke="none" transform="matrix(2.27273,0,0,2.27273,-100,0)"
font-family="Roboto" font-size="10.5" font-weight="400" font-style="normal" 
>
<path vector-effect="none" fill-rule="nonzero" d="M54,7 L54,8 L56,8 L56,7 L54,7 M51,10 L51,11 L54,11 L54,10 L51,10 M56,10 L56,11 L59,11 L59,10 L56,10"/>
</g>

<g fill="none" stroke="#000000" stroke-opacity="1" stroke-width="1" stroke-linecap="square" stroke-linejoin="bevel" transform="matrix(1,0,0,1,0,0)"
font-family="Roboto" font-size="10.5" font-weight="400" font-style="normal" 
>
</g>
</g>
</svg>
